<?xml version="1.0" standalone="no"?>
<!DOCTYPE svg PUBLIC "-//W3C//DTD SVG 20010904//EN"
 "http://www.w3.org/TR/2001/REC-SVG-20010904/DTD/svg10.dtd">
<svg version="1.0" xmlns="http://www.w3.org/2000/svg"
 width="6vw" viewBox="0 0 512.000000 512.000000"
 preserveAspectRatio="xMidYMid meet">

<g transform="translate(0.000000,512.000000) scale(0.100000,-0.100000)"
fill="current" stroke="none">
<path d="M2350 4671 c-391 -83 -686 -383 -741 -755 l-11 -76 -287 0 -287 0
-53 -26 c-90 -45 -134 -140 -110 -238 17 -70 85 -138 157 -156 l52 -12 0
-1188 c0 -1302 0 -1299 59 -1425 87 -186 256 -315 458 -350 80 -14 209 -15
1020 -12 856 3 933 4 987 21 175 52 323 180 397 343 59 129 59 122 59 1423 l0
1187 59 16 c47 13 67 25 99 62 96 110 68 265 -59 329 l-53 26 -287 0 -287 0
-7 53 c-49 392 -355 704 -765 781 -110 21 -292 20 -400 -3z m369 -427 c91 -26
172 -73 236 -138 64 -64 119 -159 131 -228 l6 -38 -532 0 -532 0 6 38 c28 153
175 305 350 362 99 32 231 33 335 4z m908 -2026 c-2 -656 -7 -1206 -12 -1223
-4 -16 -29 -50 -55 -76 -38 -38 -57 -49 -96 -56 -64 -11 -1744 -11 -1808 0
-39 7 -58 18 -96 56 -26 26 -51 60 -55 76 -5 17 -10 567 -12 1223 l-4 1192
1071 0 1071 0 -4 -1192z"/>
<path d="M2062 3189 c-46 -14 -118 -88 -131 -135 -7 -26 -11 -327 -11 -927 0
-971 -3 -927 58 -990 48 -51 97 -70 168 -65 78 5 136 41 174 108 l25 45 0 910
0 910 -28 47 c-49 84 -160 126 -255 97z"/>
<path d="M2889 3172 c-39 -20 -62 -41 -84 -77 l-30 -48 0 -911 0 -911 22 -40
c40 -76 105 -115 188 -115 85 0 160 48 196 125 18 38 19 85 19 929 0 675 -3
899 -12 930 -16 53 -81 118 -134 134 -64 19 -107 15 -165 -16z"/>
</g>
</svg>
